<?xml version="1.0" encoding="utf-8"?>
<!-- Generator: Adobe Illustrator 25.0.0, SVG Export Plug-In . SVG Version: 6.00 Build 0)  -->
<svg version="1.1" id="Ebene_1" xmlns="http://www.w3.org/2000/svg" xmlns:xlink="http://www.w3.org/1999/xlink" x="0px" y="0px"
	 viewBox="0 0 647.5 647.5" style="enable-background:new 0 0 647.5 647.5;" xml:space="preserve">
<style type="text/css">
	.st0{fill-rule:evenodd;clip-rule:evenodd;fill:#FFA812;}
	.st1{fill-rule:evenodd;clip-rule:evenodd;fill:#F9F7F8;}
	.st2{fill-rule:evenodd;clip-rule:evenodd;fill:#DDDAEC;}
	.st3{fill-rule:evenodd;clip-rule:evenodd;fill:#FF9A00;}
	.st4{fill:#4B4B4B;}
	.st5{fill:#989DBD;}
	.st6{fill:#7C85A3;}
	.st7{fill:#4B4C64;}
	.st8{fill:#F4E2DF;}
	.st9{fill:#E8C6B6;}
	.st10{fill:#FFA812;}
	.st11{fill:#FF9A00;}
	.st12{fill:#E8C6B6;stroke:#4B4B4B;stroke-width:8;}
</style>
<g id="Ebene_2_1_">
	<g>
		<path class="st0" d="M164.9,624.6h348c10.8,0,19.6-8.8,19.6-19.6s-8.8-19.6-19.6-19.6h-12.3l-246-31.8l246-31.8h12.3
			c10.8,0,19.6-8.8,19.6-19.6c0-10.8-8.8-19.6-19.6-19.6h-348c-39.2,0-71.1,31.9-71.1,71c0,18.9,7.5,36.9,20.9,50.2
			S146,624.6,164.9,624.6z"/>
	</g>
	<g>
		<path class="st1" d="M164.9,585.4h335.7c-10.1-21.3-10-42.6,0-63.6H164.9c-17.5,0-31.8,14.3-31.8,31.8c0,8.5,3.4,16.5,9.3,22.5
			C148.4,582,156.4,585.4,164.9,585.4z"/>
	</g>
	<g>
		<path class="st2" d="M500.6,521.8H164.9c-17.5,0-31.8,14.3-31.8,31.8c0,4.9,1.1,9.5,3.2,13.8c5.2-10.6,16.1-18,28.6-18h328.2
			C493.7,540.1,496.2,530.9,500.6,521.8z"/>
	</g>
	<g>
		<path class="st3" d="M512.9,482.5h-93.4c5.6,12-223.2-36.7-266,39.3h347.1h12.3c10.8,0,19.6-8.8,19.6-19.6
			C532.5,491.3,523.7,482.5,512.9,482.5z"/>
	</g>
	<g>
		<path class="st3" d="M500.6,585.4h-71.1c-3.4,14.2-8.6,27.4-15.4,39.3h98.8c10.8,0,19.6-8.8,19.6-19.6s-8.8-19.6-19.6-19.6h-12.3
			V585.4z"/>
	</g>
	<path class="st4" d="M372.9,632.9c152.1,0,152.1,5.1,164.2-15.8c0,0,2.9-7.8,2.9-12.1c0-15-12.2-27.1-27.1-27.1h-7.4
		c-6.6-16.4-6.6-32.4,0-48.6h7.4c15,0,27.1-12.2,27.1-27.1c0-15-12.2-27.1-27.1-27.1h-348c-43.3,0-78.6,35.2-78.6,78.5
		c0,20.9,9.1,42.9,23,55.5C142.8,636.9,133.1,632.9,372.9,632.9z M242.7,514.3h-77.8c-21.7,0-39.3,17.6-39.3,39.3
		c0,10.4,4.1,20.3,11.5,27.8c7.5,7.4,17.3,11.5,27.8,11.5h348c6.7,0,12.1,5.4,12.1,12.1c0,6.7-5.4,12.1-12.1,12.1h-348
		c-16.9,0-32.9-6.6-44.9-18.7c-12-12-18.7-28-18.7-44.9l0,0c0-35,28.5-63.5,63.6-63.5h348c6.7,0,12.1,5.4,12.1,12.1
		s-5.4,12.1-12.1,12.1H374.6H242.7V514.3z M374.6,529.3h114.8c-5.3,16.1-5.3,32.4,0,48.6H164.9c-6.5,0-12.6-2.5-17.2-7.1
		c-4.6-4.6-7.2-10.7-7.2-17.2c0-13.4,10.9-24.3,24.3-24.3h77.8H374.6z"/>
</g>
<g id="Ebene_1_1_">
	<path class="st5" d="M190.9,329L190.9,329c-15.7-8.5-28.6-18.9-38.8-31.1l0,0c0,0-67.2,127.1,44.2,147.9
		C166,396.6,190.9,329,190.9,329z"/>
	<path class="st6" d="M139.5,389c-4.2,35.5,13.4,75.2,71.4,86c-5.8-9.4-9.6-19.6-11.9-29.8C164.4,435.2,142.8,413,139.5,389z"/>
	<path class="st5" d="M443.4,329L443.4,329c15.7-8.5,28.6-18.9,38.8-31.1l0,0c0,0,67.2,127.1-44.2,147.9
		C468.3,396.6,443.4,329,443.4,329z"/>
	<path class="st6" d="M436.7,445.2c-2.3,10.2-6.1,20.3-11.9,29.8c58-10.8,82.5-53.6,78.4-89.1C499.9,410,471.4,435.2,436.7,445.2z"
		/>
	<path class="st6" d="M443.4,329c-30.9,16.6-72.9,25.6-126.3,25.6s-95.3-9-126.3-25.6c0,0-61.5,166.9,126.3,166.9
		S443.4,329,443.4,329z"/>
	<path class="st7" d="M317.2,469c-103.3,0-131.2-50.6-135.3-96c-4.1,49.5,10.7,123,135.3,123s139.4-73.5,135.3-123
		C448.3,418.4,420.5,469,317.2,469z"/>
	<path class="st5" d="M317.2,354.6c123.2,0,185.3-47.9,192.5-126.7c7.4-80.6-41.5-147.3-41.5-147.3c24.8-24.1,33-48.6,33-48.6
		c-87.4,37-184.1,33.1-184.1,33.1S220.5,69,133,32c0,0,8.2,24.5,33,48.6c0,0-48.9,66.7-41.5,147.3
		C131.9,306.7,193.9,354.6,317.2,354.6z"/>
	<path class="st6" d="M509.7,201c-7.2,78.7-69.3,126.7-192.5,126.7s-185.3-48-192.5-126.7c-0.1-1.2-0.2-2.3-0.3-3.4
		c-0.7,9.8-0.7,20,0.3,30.4c7.2,78.7,69.3,126.7,192.5,126.7s185.2-48,192.5-126.7c1-10.4,1-20.6,0.3-30.4
		C509.9,198.7,509.8,199.9,509.7,201z"/>
	<path class="st8" d="M413.8,111.9c-61.4-22.3-96.6,31.8-96.6,31.8s-35.2-54.1-96.6-31.8s-64,114.8-38.7,155
		c21.6,34.5,78.2,45.8,115,5.5c-2.3-5.9-3.7-12.4-3.7-18.6c0-17.4,10.8-25.5,24.1-25.5c13.3,0,24.1,8.1,24.1,25.5
		c0,6.2-1.4,12.7-3.7,18.6c36.8,40.3,93.4,29,115-5.5C477.8,226.7,475.3,134.2,413.8,111.9z"/>
	<path class="st9" d="M293.4,249.1c-36.8,36-90.7,24.4-111.6-9c-7.6-12.2-12.7-29.1-14.4-47.5c-2.6,27.9,3.1,56.4,14.4,74.4
		c21.6,34.5,78.2,45.8,115,5.5c-2.3-5.9-3.7-12.4-3.7-18.6C293.1,252.2,293.2,250.6,293.4,249.1z"/>
	<path class="st9" d="M452.5,240c-21,33.4-74.8,45.1-111.6,9c0.2,1.5,0.3,3.2,0.3,4.9c0,6.2-1.4,12.7-3.7,18.6
		c36.8,40.3,93.4,29,115-5.5c11.3-18,17-46.5,14.4-74.4C465.3,210.9,460.2,227.9,452.5,240z"/>
	<path class="st10" d="M341.2,253.9c0-17.4-10.8-25.5-24.1-25.5s-24.1,8.1-24.1,25.5s10.8,37.6,24.1,37.6S341.2,271.3,341.2,253.9z"
		/>
	<path class="st11" d="M317.2,264.6c-9.6,0-17.9-10.6-21.8-23c-1.5,3.4-2.3,7.5-2.3,12.3c0,17.4,10.8,37.6,24.1,37.6
		s24.1-20.2,24.1-37.6c0-4.8-0.8-8.9-2.3-12.3C335.1,254,326.8,264.6,317.2,264.6z"/>
	<path class="st4" d="M239,227.7c11.8,0,21-12,21-27.4s-9.2-27.4-21-27.4s-21,12-21,27.4S227.2,227.7,239,227.7z"/>
	<path class="st4" d="M172,84.9c2.2-3,1.9-7.2-0.8-9.8c-10.8-10.4-18.2-21-23.2-29.3C229,75,310.6,72.7,317.2,72.5
		c6.7,0.2,88.2,2.5,169.2-26.7c-4.9,8.3-12.4,18.9-23.2,29.3c-2.7,2.6-3,6.8-0.8,9.8c0.5,0.6,47.2,65.4,40.1,142.4
		c-7.2,78.5-71.3,120-185.3,120s-178.4-43.5-185.3-120C125,150.7,171.7,85.3,172,84.9z M491.3,298.9c14.8-19.4,23.6-42.9,26.1-70.3
		c6.5-70.4-27.7-129.6-39.3-147.3c22.4-23.5,30.1-46.2,30.5-47.2c2-6-4.2-11.7-10-9.3c-84.9,35.9-180.1,32.6-181.1,32.5
		c-0.2,0-0.4,0-0.6,0c-1,0-96.2,3.4-181.1-32.5c-5.8-2.5-12,3.3-10,9.3c0.3,1,8,23.6,30.5,47.2c-8.9,13.7-31.4,52.4-38.2,102
		c0,0-3,24.9-1.1,45.3s11.3,50.9,26.1,70.3c-7.6,16.1-24.1,60.6-13,103.6c10.6,41.3,34.1,101.1,187.1,101.1s175.9-57.5,186-77.9
		C531.4,369,493.9,304.3,491.3,298.9z M429.2,472.6c38.4-44,33-78.2,30.8-102.3c-1.6-16.6-5.1-30.3-7.3-37.8c3-1.8,5.9-3.6,8.7-5.5
		c7-4.8,13.4-10.1,19.1-15.8C518.2,391.9,494.9,441.3,429.2,472.6z M206.1,471.6c-47-21.2-82.2-82.6-52.1-160.3
		c5.7,5.7,12.1,11,19.1,15.8c2.8,1.9,5.7,3.8,8.7,5.5C166.8,391.4,174.4,439.5,206.1,471.6z M195.3,339.7
		c31.8,14.9,72.6,22.5,121.9,22.5s90.1-7.6,121.9-22.5c5.4,19.4,15.6,69.7-9.7,106.1c-19.8,28.4-57.6,42.8-112.1,42.8
		c-45,0-78.7-9.8-100.2-29.3C192,437.9,185,391.4,195.3,339.7z"/>
	<path class="st4" d="M395.3,227.7c11.8,0,21-12,21-27.4s-9.2-27.4-21-27.4s-21,12-21,27.4C374.4,215.7,383.6,227.7,395.3,227.7z"/>
	<path class="st4" d="M233.4,305.3c22.6,2,44.1-5.2,61.5-20.5c5.6,8.4,13.4,14.2,22.3,14.2s16.7-5.8,22.3-14.2
		c15.5,13.6,34.1,20.8,54,20.8c2.5,0,5-0.1,7.5-0.3c24.3-2.2,46-15,58.1-34.4c17.6-28.1,21.3-74.5,8.9-110.6
		c-9.5-27.7-27.3-46.9-51.5-55.7c-34.7-12.6-61.6-2.4-78.1,8.3c-9.5,6.2-16.6,13.2-21.2,18.5c-4.6-5.3-11.7-12.3-21.2-18.5
		c-16.5-10.7-43.4-20.9-78.1-8.3c-24.2,8.8-42,28-51.5,55.7c-12.4,36-8.6,82.5,8.9,110.6C187.4,290.3,209.1,303.1,233.4,305.3z
		 M317.2,284c-7.2,0-16.6-14.6-16.6-30.1c0-15.7,10.4-18,16.6-18c14.4,0,16.6,11.3,16.6,18C333.8,269.4,324.4,284,317.2,284z
		 M180.5,165.3c5.6-16.2,17.5-37.4,42.4-46.5c23-8.3,44.6-6.1,64.4,6.5c15.1,9.7,23.5,22.3,23.6,22.4c1.4,2.1,3.7,3.4,6.3,3.4l0,0
		c2.5,0,4.9-1.3,6.3-3.4c0.1-0.1,8.4-12.7,23.6-22.4c19.7-12.7,41.4-14.9,64.4-6.5c25,9.1,36.9,30.3,42.4,46.5
		c10.9,31.6,7.7,73.6-7.5,97.7c-9.6,15.4-27.1,25.6-46.7,27.4c-19.8,1.8-38.6-5.2-53.4-19.8c1.7-5.4,2.6-11.2,2.6-16.7
		c0-20-12.4-33-31.6-33s-31.6,13-31.6,33c0,5.6,0.9,11.3,2.6,16.7c-14.8,14.6-33.7,21.6-53.4,19.8c-19.6-1.8-37.1-12-46.7-27.4
		C172.9,238.9,169.7,196.8,180.5,165.3z"/>
	<path class="st12" d="M176.4,152.3c0,10.1-2.8,19.2-8.4,27.1c-5.6,7.9-13.2,14.5-22.8,19.8c6.2,4.3,11.2,9.5,14.9,15.6
		s5.5,12.9,5.5,20.3c0,8.8-2.7,17.6-8,26.1c-5.3,8.6-12.4,16.2-21.2,22.8c-8.8,6.6-18.9,12-30.2,16.1s-22.8,6.1-34.6,6.1
		c-12.8,0-23.9-2.4-33.5-7.2c-9.6-4.8-17.1-11.7-22.5-20.5c1.6-4.9,3.8-11,6.5-18.3s5.7-15,9-23.1C34.3,229,37.6,221,41,213
		s6.5-15.2,9.5-21.6c6.2-13.9,11.8-25.4,16.7-34.6c4.9-9.2,9.4-16.5,13.5-21.8c-9,2.8-17.2,5.9-24.5,9.5s-12.8,6.9-16.2,10.2
		c-1.5-1-3-2.5-4.5-4.4c-1.6-2-3-4.1-4.4-6.5s-2.5-4.8-3.4-7.2c-0.9-2.5-1.4-4.7-1.6-6.6c4.3-2.9,9.8-5.8,16.6-8.5s14.2-5,22.2-7
		s16.2-3.5,24.7-4.7c8.4-1.1,16.5-1.7,24.2-1.7c19.6,0,35,3.9,46.2,11.8C170.8,127.5,176.4,138.4,176.4,152.3z M82.9,211
		c-3.1-1.5-6-3.7-8.6-6.6c-3.8,8.3-7.3,16.5-10.7,24.5c-3.4,8-6.3,15.5-9,22.3c-2.6,6.9-4.7,12.8-6.4,17.9s-2.5,8.8-2.7,11
		c2.3,1.3,5,2.3,8.2,2.9s7.2,1,11.9,1c11.1,0,21.8-1.6,31.9-4.7s19.1-7.3,26.8-12.6c7.7-5.3,13.8-11.4,18.4-18.3
		c4.6-6.9,6.9-14.1,6.9-21.6c0-10.8-4.7-18.6-14-23.3c-12.8,5.2-27.2,7.9-43.2,7.9c-2.3,0-4,0-5.3,0C85.9,211.5,84.5,211.3,82.9,211
		z M130.5,125.8c-3.4,0-7.1,0.2-10.9,0.6s-7.9,1-12.2,1.8c0.6,0.7,1.2,1.3,1.6,2.1c0.4,0.7,0.8,1.5,1.1,2.3c-1.5,2-3.3,4.8-5.4,8.6
		s-4.5,8.1-7.1,13.1s-5.4,10.5-8.2,16.6c-2.9,6.1-5.8,12.3-8.7,18.7c2.8-0.6,6.2-1.2,10.2-1.6c4-0.4,8-0.6,11.9-0.6
		c2.1,0,4.2,0.1,6.3,0.2c2,0.2,4,0.4,6,0.7c7.9-1.3,14.9-3.2,21.2-5.8c6.3-2.5,11.7-5.5,16.3-8.8c4.6-3.4,8.1-7.1,10.6-11.2
		c2.5-4.1,3.7-8.4,3.7-13c0-7.9-3.1-13.8-9.3-17.8C151.3,127.8,142.3,125.8,130.5,125.8z"/>
	<path class="st12" d="M472,304.7c-6.2-1.5-11.4-4.1-15.5-7.7c-4.1-3.7-7.9-8.3-11.3-13.9c1.5-3.1,3.2-7.2,5.3-12.3
		c2-5.1,4.5-11.3,7.5-18.8c2.9-7.4,6.5-16.4,10.5-26.8c4.1-10.4,8.8-22.5,14.2-36.5c3.4-8.8,6.3-16.3,8.5-22.3
		c2.2-6.1,4.1-12,5.6-17.8s3.1-12.2,4.5-19.3c1.5-7,3.2-16,5.2-26.8c6.9,1.3,13.1,4.3,18.8,9.1c5.6,4.7,10.5,10.5,14.6,17.2
		c-1.8,2.3-3.9,5.8-6.3,10.4c-2.4,4.7-5,10.3-8,16.8c-2.9,6.6-6.2,13.8-9.8,21.8s-7.4,16.5-11.3,25.5c-8.8,19.6-15.8,37.6-20.9,53.9
		S474.8,289.4,472,304.7z M509.1,206.9c10.1-15.1,20.2-28.9,30.1-41.6c9.9-12.7,19.4-23.6,28.4-32.8s17.3-16.3,24.8-21.4
		s14.1-7.6,19.6-7.6c2.1,0,4.5,0.8,7,2.5c2.5,1.6,4.9,3.8,7.1,6.4s4,5.4,5.5,8.5c1.5,3,2.2,5.9,2.2,8.7
		c-10.1,3.3-20.1,7.6-29.8,12.9c-9.7,5.3-19.1,11.5-28,18.4c-8.9,7-17.4,14.7-25.5,23.2s-15.4,17.6-22,27.3
		c2.6,6.7,5.8,13.9,9.7,21.5c3.8,7.6,8.1,15,12.6,22.1c4.6,7.1,9.5,13.7,14.7,19.8s10.6,10.9,16,14.5c-0.8,1.8-2.2,3.5-4.2,5.2
		c-2,1.6-4.1,3.2-6.4,4.5c-2.3,1.4-4.7,2.5-7.2,3.3s-4.9,1.2-7,1.2c-4.3,0-8.2-2-11.8-6s-7.2-10.1-10.9-18.2s-7.5-18.2-11.5-30.2
		C518.4,237,514,223,509.1,206.9z"/>
</g>
</svg>
