<?xml version="1.0" encoding="utf-8"?>
<!-- Generator: Adobe Illustrator 25.0.0, SVG Export Plug-In . SVG Version: 6.00 Build 0)  -->
<svg version="1.1" id="Ebene_1" xmlns="http://www.w3.org/2000/svg" xmlns:xlink="http://www.w3.org/1999/xlink" x="0px" y="0px"
	 viewBox="0 0 100 180" style="enable-background:new 0 0 100 180;" xml:space="preserve">
<style type="text/css">
	.st0{fill:#4C4B4B;}
	.st1{enable-background:new    ;}
	.st2{fill:#CFD2EB;}
	.st3{fill:none;stroke:#CFD2EB;}
	.st4{fill:#CFD2EB;stroke:#CFD2EB;}
</style>
<rect class="st0" width="100" height="180"/>
<g class="st1">
	<path class="st2" d="M34.9,136.3c-0.4,0-0.8-0.1-1.3-0.2c-0.5-0.2-1-0.4-1.4-0.7c-0.4-0.3-0.8-0.7-1.2-1.3
		c-0.3-0.5-0.5-1.1-0.5-1.8c0-0.4,0.1-1,0.2-1.8c0.1-0.8,0.4-1.5,0.7-2.3c0.3-0.8,0.7-1.4,1.2-2c0.5-0.6,1.1-0.9,1.8-0.9
		c0.4,0,0.9,0.1,1.6,0.4c0.6,0.3,1.2,0.6,1.9,1c0.6,0.4,1.2,0.9,1.7,1.4c0.6,0.5,1,1.1,1.3,1.6c-0.5,0.6-1,1.2-1.4,2
		c-0.4,0.8-0.9,1.5-1.3,2.2c-0.4,0.7-0.9,1.3-1.4,1.8C36.2,136.1,35.6,136.3,34.9,136.3z M50.4,76.5c1.8,0.1,3.6,0.6,5.3,1.4
		c1.7,0.8,3.2,1.8,4.5,3c1.3,1.2,2.4,2.6,3.1,4.2c0.8,1.6,1.2,3.2,1.2,5c0,1.8-0.3,3.4-0.9,5c-0.6,1.5-1.6,3.1-2.8,4.7
		c-1.2,1.6-2.7,3.2-4.5,4.9c-1.8,1.7-3.8,3.6-6,5.8c-2.2,2.1-3.8,4.1-5,6.3c-1.1,2.1-1.7,4-1.7,5.8c0,0.2,0,0.5,0,0.7
		c0,0.2,0.1,0.5,0.1,0.8c-0.8,0-1.6-0.2-2.5-0.5c-0.9-0.3-1.7-0.8-2.6-1.3c-0.8-0.5-1.5-1.1-2.2-1.8c-0.6-0.6-1.1-1.3-1.4-1.9
		c0-1.1,0.3-2.4,0.8-3.9c0.5-1.5,1.3-3.1,2.3-4.8c1-1.7,2.4-3.3,4.1-5c1.7-1.7,3.6-3.2,5.9-4.5c3.7-2.2,6.4-4.3,8.3-6.4
		c1.8-2.1,2.7-3.9,2.7-5.5c0-0.7-0.2-1.5-0.5-2.2c-0.3-0.7-0.7-1.3-1.2-1.9c-0.5-0.6-1-1-1.6-1.4c-0.6-0.3-1.2-0.5-1.9-0.5
		c-0.7,0-1.5,0.3-2.3,1C51,84.1,50.2,85,49.4,86c-0.7,1-1.4,2.1-1.9,3.4c-0.5,1.2-0.8,2.3-0.8,3.3c0,0.7,0.1,1.1,0.2,1.3
		c-0.4,0.1-0.7,0.1-0.9,0.1s-0.5,0-0.7,0c-0.9,0-1.9-0.1-2.8-0.3s-1.8-0.4-2.5-0.7c-0.8-0.3-1.4-0.6-2-1c-0.5-0.4-0.9-0.8-1-1.2
		c0.3-1.5,1-3.1,2-4.8c1-1.6,2.1-3.1,3.4-4.5c1.3-1.4,2.6-2.5,4-3.5C47.8,77.2,49.1,76.7,50.4,76.5z"/>
</g>
<g class="st1">
	<path class="st3" d="M34.9,136.3c-0.4,0-0.8-0.1-1.3-0.2c-0.5-0.2-1-0.4-1.4-0.7c-0.4-0.3-0.8-0.7-1.2-1.3
		c-0.3-0.5-0.5-1.1-0.5-1.8c0-0.4,0.1-1,0.2-1.8c0.1-0.8,0.4-1.5,0.7-2.3c0.3-0.8,0.7-1.4,1.2-2c0.5-0.6,1.1-0.9,1.8-0.9
		c0.4,0,0.9,0.1,1.6,0.4c0.6,0.3,1.2,0.6,1.9,1c0.6,0.4,1.2,0.9,1.7,1.4c0.6,0.5,1,1.1,1.3,1.6c-0.5,0.6-1,1.2-1.4,2
		c-0.4,0.8-0.9,1.5-1.3,2.2c-0.4,0.7-0.9,1.3-1.4,1.8C36.2,136.1,35.6,136.3,34.9,136.3z M50.4,76.5c1.8,0.1,3.6,0.6,5.3,1.4
		c1.7,0.8,3.2,1.8,4.5,3c1.3,1.2,2.4,2.6,3.1,4.2c0.8,1.6,1.2,3.2,1.2,5c0,1.8-0.3,3.4-0.9,5c-0.6,1.5-1.6,3.1-2.8,4.7
		c-1.2,1.6-2.7,3.2-4.5,4.9c-1.8,1.7-3.8,3.6-6,5.8c-2.2,2.1-3.8,4.1-5,6.3c-1.1,2.1-1.7,4-1.7,5.8c0,0.2,0,0.5,0,0.7
		c0,0.2,0.1,0.5,0.1,0.8c-0.8,0-1.6-0.2-2.5-0.5c-0.9-0.3-1.7-0.8-2.6-1.3c-0.8-0.5-1.5-1.1-2.2-1.8c-0.6-0.6-1.1-1.3-1.4-1.9
		c0-1.1,0.3-2.4,0.8-3.9c0.5-1.5,1.3-3.1,2.3-4.8c1-1.7,2.4-3.3,4.1-5c1.7-1.7,3.6-3.2,5.9-4.5c3.7-2.2,6.4-4.3,8.3-6.4
		c1.8-2.1,2.7-3.9,2.7-5.5c0-0.7-0.2-1.5-0.5-2.2c-0.3-0.7-0.7-1.3-1.2-1.9c-0.5-0.6-1-1-1.6-1.4c-0.6-0.3-1.2-0.5-1.9-0.5
		c-0.7,0-1.5,0.3-2.3,1C51,84.1,50.2,85,49.4,86c-0.7,1-1.4,2.1-1.9,3.4c-0.5,1.2-0.8,2.3-0.8,3.3c0,0.7,0.1,1.1,0.2,1.3
		c-0.4,0.1-0.7,0.1-0.9,0.1s-0.5,0-0.7,0c-0.9,0-1.9-0.1-2.8-0.3s-1.8-0.4-2.5-0.7c-0.8-0.3-1.4-0.6-2-1c-0.5-0.4-0.9-0.8-1-1.2
		c0.3-1.5,1-3.1,2-4.8c1-1.6,2.1-3.1,3.4-4.5c1.3-1.4,2.6-2.5,4-3.5C47.8,77.2,49.1,76.7,50.4,76.5z"/>
</g>
<g class="st1">
	<path class="st4" d="M38.2,25.8c0,1.2-0.3,2.2-1,3.1c-0.6,0.9-1.5,1.7-2.6,2.3c0.7,0.5,1.3,1.1,1.7,1.8c0.4,0.7,0.6,1.5,0.6,2.3
		c0,1-0.3,2-0.9,3c-0.6,1-1.4,1.9-2.4,2.6c-1,0.8-2.2,1.4-3.5,1.8c-1.3,0.5-2.6,0.7-4,0.7c-1.5,0-2.8-0.3-3.9-0.8
		c-1.1-0.6-2-1.3-2.6-2.4c0.2-0.6,0.4-1.3,0.7-2.1c0.3-0.8,0.7-1.7,1-2.7c0.4-0.9,0.8-1.9,1.1-2.8c0.4-0.9,0.7-1.8,1.1-2.5
		c0.7-1.6,1.4-2.9,1.9-4c0.6-1.1,1.1-1.9,1.6-2.5c-1,0.3-2,0.7-2.8,1.1c-0.8,0.4-1.5,0.8-1.9,1.2c-0.2-0.1-0.3-0.3-0.5-0.5
		c-0.2-0.2-0.3-0.5-0.5-0.7c-0.2-0.3-0.3-0.6-0.4-0.8c-0.1-0.3-0.2-0.5-0.2-0.8c0.5-0.3,1.1-0.7,1.9-1c0.8-0.3,1.6-0.6,2.6-0.8
		c0.9-0.2,1.9-0.4,2.8-0.5c1-0.1,1.9-0.2,2.8-0.2c2.3,0,4,0.5,5.3,1.4C37.5,23,38.2,24.2,38.2,25.8z M27.4,32.6
		c-0.4-0.2-0.7-0.4-1-0.8c-0.4,1-0.8,1.9-1.2,2.8c-0.4,0.9-0.7,1.8-1,2.6c-0.3,0.8-0.5,1.5-0.7,2.1c-0.2,0.6-0.3,1-0.3,1.3
		c0.3,0.2,0.6,0.3,0.9,0.3c0.4,0.1,0.8,0.1,1.4,0.1c1.3,0,2.5-0.2,3.7-0.5c1.2-0.4,2.2-0.8,3.1-1.5c0.9-0.6,1.6-1.3,2.1-2.1
		c0.5-0.8,0.8-1.6,0.8-2.5c0-1.2-0.5-2.1-1.6-2.7c-1.5,0.6-3.1,0.9-5,0.9c-0.3,0-0.5,0-0.6,0C27.8,32.6,27.6,32.6,27.4,32.6z
		 M32.9,22.8c-0.4,0-0.8,0-1.3,0.1c-0.4,0-0.9,0.1-1.4,0.2c0.1,0.1,0.1,0.2,0.2,0.2c0,0.1,0.1,0.2,0.1,0.3c-0.2,0.2-0.4,0.6-0.6,1
		c-0.2,0.4-0.5,0.9-0.8,1.5c-0.3,0.6-0.6,1.2-0.9,1.9c-0.3,0.7-0.7,1.4-1,2.1c0.3-0.1,0.7-0.1,1.2-0.2c0.5,0,0.9-0.1,1.4-0.1
		c0.2,0,0.5,0,0.7,0c0.2,0,0.5,0,0.7,0.1c0.9-0.2,1.7-0.4,2.4-0.7c0.7-0.3,1.3-0.6,1.9-1c0.5-0.4,0.9-0.8,1.2-1.3
		c0.3-0.5,0.4-1,0.4-1.5c0-0.9-0.4-1.6-1.1-2C35.3,23,34.2,22.8,32.9,22.8z"/>
	<path class="st4" d="M46.4,40.8c-0.4-0.3-0.6-0.7-0.7-1.1c-0.1-0.5-0.2-0.8-0.2-1.2c0-0.4,0-0.7,0.1-1c-0.1,0-0.2,0.2-0.5,0.5
		c-0.3,0.3-0.6,0.7-0.9,1.1c-0.3,0.4-0.6,0.8-0.9,1.2c-0.3,0.4-0.5,0.7-0.7,0.9c-0.2,0.3-0.5,0.5-0.7,0.6c-0.2,0.2-0.4,0.2-0.5,0.3
		c-0.3,0-0.6-0.1-0.9-0.2c-0.3-0.1-0.6-0.3-0.9-0.4c-0.3-0.2-0.5-0.4-0.8-0.7c-0.2-0.3-0.4-0.6-0.4-0.9c0-0.5,0-1,0-1.3
		s0.1-0.7,0.2-1.1c0.2-0.7,0.4-1.5,0.7-2.4s0.7-1.8,1.1-2.7c0.4-0.9,0.9-1.7,1.5-2.5c0.5-0.8,1.1-1.4,1.7-1.8c0.2,0,0.4,0,0.6,0
		c0.2,0,0.5,0.1,0.7,0.2c0.2,0.1,0.5,0.2,0.7,0.3c0.2,0.1,0.4,0.2,0.6,0.4c-0.2,0.2-0.6,0.8-1.3,1.9c-0.7,1.1-1.5,2.6-2.3,4.6
		c-0.1,0.2-0.2,0.5-0.3,0.9c-0.1,0.4-0.3,0.8-0.4,1.2c-0.1,0.4-0.2,0.9-0.3,1.3c-0.1,0.4-0.1,0.7-0.1,1c0,0.2,0,0.3,0.1,0.3
		c0,0.1,0.1,0.1,0.1,0.2c0.3-0.1,0.6-0.4,1.1-0.9c0.4-0.5,1-1.3,1.8-2.3c0.2-0.3,0.4-0.6,0.7-0.9c0.3-0.3,0.5-0.7,0.8-1.1
		c0.3-0.4,0.5-0.8,0.7-1.2c0.2-0.4,0.4-0.8,0.6-1.2c0.1-0.2,0.2-0.5,0.3-0.8c0.1-0.3,0.3-0.6,0.5-1c0.2-0.3,0.4-0.7,0.6-1
		c0.2-0.3,0.5-0.7,0.8-1c0.2,0,0.5,0,0.8,0.1c0.3,0.1,0.6,0.1,0.8,0.2c0.3,0.1,0.5,0.2,0.7,0.3c0.2,0.1,0.3,0.2,0.4,0.3
		c-0.3,0.8-0.7,1.6-1.1,2.5c-0.4,0.8-0.8,1.6-1.2,2.4s-0.7,1.6-0.9,2.3c-0.2,0.8-0.4,1.5-0.4,2.3c0,0.4,0,0.7,0.1,1
		c0.1,0.3,0.1,0.5,0.2,0.7c0.1,0.2,0.1,0.4,0.2,0.5c0.1,0.1,0.1,0.2,0.1,0.3c0,0,0,0-0.1,0.1c0,0,0,0-0.1,0c-0.1,0-0.3,0-0.5-0.1
		s-0.4-0.1-0.7-0.2c-0.3-0.1-0.5-0.2-0.8-0.4S46.6,40.9,46.4,40.8z"/>
	<path class="st4" d="M52.7,36.4c0-1.1,0.2-2.1,0.7-3.1c0.4-1,1-1.9,1.8-2.7c0.7-0.8,1.6-1.4,2.5-1.9c0.9-0.5,1.9-0.7,2.9-0.7
		c1,0,1.7,0.2,2.3,0.7c0.5,0.5,0.8,1.2,0.8,2.1c0,0.4-0.1,0.9-0.2,1.3c-0.1,0.4-0.3,0.8-0.5,1.1c-0.2,0.3-0.4,0.6-0.7,0.8
		c-0.3,0.2-0.5,0.3-0.8,0.3c-0.2,0-0.5-0.1-0.7-0.2c-0.2-0.1-0.4-0.3-0.6-0.5c1.3-1.1,1.9-2.2,1.9-3.1c0-0.5-0.2-0.8-0.6-0.8
		c-0.4,0-0.8,0.2-1.4,0.5c-0.6,0.4-1.1,0.8-1.6,1.4c-0.8,0.9-1.4,1.9-1.8,3c-0.4,1.1-0.6,2.3-0.6,3.5c0,1.5,0.3,2.4,1,2.7
		c0.3,0,0.6-0.1,1-0.3c0.4-0.1,0.8-0.3,1.2-0.5c0.4-0.2,0.9-0.5,1.3-0.7s0.9-0.6,1.3-0.9c0.1,0.1,0.1,0.1,0.2,0.3
		c0.1,0.1,0.1,0.2,0.1,0.3c-0.3,0.4-0.7,0.8-1.1,1.2c-0.4,0.4-0.8,0.7-1.3,1c-0.5,0.3-0.9,0.6-1.3,0.8c-0.4,0.2-0.8,0.4-1.1,0.4
		c-0.6-0.1-1.2-0.2-1.7-0.6c-0.5-0.3-1-0.8-1.4-1.3c-0.4-0.5-0.7-1.1-1-1.8C52.8,37.9,52.7,37.2,52.7,36.4z"/>
	<path class="st4" d="M64.3,40.9c0-0.7,0.1-1.4,0.2-2.3c0.1-0.9,0.3-1.8,0.6-2.9c0.3-1,0.6-2.1,0.9-3.2c0.3-1.1,0.7-2.2,1.2-3.3
		c0.4-1,0.8-2,1.3-3c0.5-1,1-2,1.6-3c0.6-1,1.2-1.9,1.8-2.8c0.6-0.9,1.3-1.7,1.9-2.4c0.3,0,0.6,0,1,0.1c0.3,0.1,0.7,0.2,1,0.3
		c0.3,0.1,0.6,0.3,0.9,0.4c0.3,0.2,0.5,0.3,0.7,0.5c-1.4,1.4-2.7,2.9-3.8,4.4c-1.1,1.5-2,2.9-2.7,4.2c-0.4,0.7-0.7,1.4-1,2
		c-0.3,0.6-0.6,1.2-0.8,1.8c-0.2,0.6-0.5,1.2-0.7,1.8c-0.2,0.6-0.4,1.3-0.6,1.9c3.6-4.6,6.3-6.9,8-6.9c0.5,0,1,0.2,1.6,0.5
		c0.6,0.3,1.1,0.8,1.5,1.3c-0.6,0.6-1.2,1.4-1.8,2.3c-0.6,0.9-1.2,1.8-1.7,2.7c-0.5,0.9-0.9,1.8-1.3,2.5c-0.3,0.8-0.5,1.4-0.5,1.7
		c0,0.2,0,0.3,0.1,0.4c0.1,0.1,0.2,0.1,0.4,0.1c0.3,0,0.5,0,0.7-0.1c0.2-0.1,0.3-0.1,0.3-0.1c0.1,0.2,0.2,0.3,0.2,0.3
		c0,0.1,0,0.1,0,0.1c0,0.1-0.1,0.2-0.3,0.3c-0.2,0.1-0.5,0.3-0.8,0.4c-0.3,0.1-0.6,0.3-0.9,0.4c-0.3,0.1-0.5,0.2-0.7,0.2
		c-0.2,0-0.4-0.1-0.6-0.2c-0.2-0.1-0.4-0.2-0.5-0.4c-0.1-0.2-0.3-0.4-0.3-0.6s-0.1-0.4-0.1-0.6c0-0.3,0.1-0.7,0.2-1.3
		c0.2-0.6,0.4-1.2,0.7-1.9c0.3-0.7,0.6-1.6,1-2.4c0.4-0.9,0.8-1.8,1.3-2.7c0-0.1,0-0.1-0.1-0.1c-0.1,0-0.2,0.1-0.4,0.2
		c-0.2,0.2-0.5,0.3-0.7,0.5c-0.7,0.5-1.4,1.1-2,1.9c-0.7,0.7-1.4,1.6-2,2.4c-0.6,0.9-1.3,1.8-1.8,2.8c-0.6,1-1.1,2-1.5,3
		c-0.1,0.1-0.1,0.3-0.3,0.4c-0.1,0.1-0.2,0.2-0.3,0.2c-0.1,0-0.1-0.1-0.2-0.2s-0.2-0.3-0.3-0.5c-0.1-0.2-0.2-0.4-0.2-0.6
		C64.4,41.2,64.3,41.1,64.3,40.9z"/>
</g>
<g class="st1">
	<path class="st4" d="M17.8,63.3c0-1.3,0.2-2.6,0.5-3.9c0.3-1.3,0.7-2.5,1.3-3.6c0.6-1.1,1.2-2.2,2-3.1c0.8-1,1.6-1.8,2.6-2.5
		c0.9-0.7,1.9-1.2,3-1.6c1.1-0.4,2.1-0.6,3.2-0.6c1.3,0,2.3,0.3,3,0.8c0.7,0.5,1.1,1.3,1.1,2.3c0,0.4-0.1,0.8-0.2,1.2
		c-0.1,0.4-0.3,0.8-0.5,1.2c-0.2,0.4-0.4,0.8-0.7,1.1c-0.3,0.4-0.6,0.7-0.9,0.9c-0.5-0.1-0.9-0.3-1.3-0.7c-0.4-0.4-0.6-0.8-0.7-1.3
		c0.7-0.5,1.2-1.1,1.6-1.7c0.4-0.6,0.6-1.1,0.6-1.6c0-0.8-0.5-1.2-1.6-1.2c-0.4,0-0.9,0.1-1.3,0.3c-0.5,0.2-0.9,0.4-1.4,0.7
		c-0.5,0.3-0.9,0.7-1.4,1.2c-0.4,0.5-0.9,1-1.2,1.5c-2.6,3.8-3.9,7.6-3.9,11.5c0,1.4,0.2,2.5,0.6,3.4c0.4,0.8,1,1.3,1.7,1.5
		c0.8-0.2,1.8-0.7,3.1-1.6c1.2-0.8,2.6-1.9,4.1-3.3c0.2,0.2,0.3,0.4,0.3,0.6c-0.5,0.7-1.1,1.4-1.7,2.1c-0.6,0.7-1.2,1.3-1.7,1.8
		c-0.6,0.5-1.1,1-1.7,1.4c-0.6,0.4-1.1,0.7-1.5,1c-2.3,0-4.1-0.6-5.3-1.9C18.4,67.7,17.8,65.8,17.8,63.3z"/>
	<path class="st4" d="M36.7,69.8c-1.1-0.1-1.9-0.6-2.6-1.4c-0.6-0.8-1-1.9-1-3.2c0-0.8,0.1-1.5,0.3-2.3c0.2-0.8,0.5-1.6,1-2.4
		c0.4-0.8,0.9-1.5,1.5-2.2c0.6-0.7,1.2-1.3,1.8-1.8c1-0.8,2-1.2,2.9-1.2c0.6,0.3,1.2,1,1.8,2c0.1,0,0.2,0,0.3,0c0.1,0,0.2,0,0.3,0
		c1,0,1.5,0.9,1.5,2.7c0,1.2-0.2,2.3-0.6,3.4c-0.4,1.1-0.9,2-1.6,2.9c-0.7,0.9-1.5,1.6-2.5,2.2C38.9,69.1,37.9,69.5,36.7,69.8z
		 M38.2,60.9c-0.3,0.4-0.6,0.9-0.9,1.4c-0.3,0.5-0.5,1-0.7,1.5c-0.2,0.5-0.4,1-0.5,1.5c-0.1,0.5-0.2,0.9-0.2,1.3
		c0,0.5,0.1,0.9,0.2,1.3c0.2,0.4,0.3,0.6,0.5,0.7c0.8-0.2,1.6-0.5,2.3-1.1c0.7-0.5,1.3-1.2,1.8-1.9c0.5-0.8,0.9-1.6,1.2-2.6
		c0.3-1,0.4-2,0.4-3.1c0-0.5,0-0.9-0.1-1.2c-0.1-0.3-0.2-0.5-0.3-0.7c-0.8,0.2-1.6,0.6-2.2,1.2C39.2,59.7,38.6,60.3,38.2,60.9z"/>
	<path class="st4" d="M47.2,58.8c0-0.3,0-0.7,0.1-1c0-0.3,0.1-0.6,0.3-0.8c0.2-0.2,0.4-0.4,0.6-0.5c0.3-0.1,0.6-0.2,1-0.2
		c0.3,0,0.6,0,0.9,0.1c0.3,0.1,0.6,0.2,0.7,0.3c-0.1,0.3-0.1,0.6-0.2,0.8s-0.1,0.5-0.1,0.8c0,0.3-0.1,0.6-0.1,1c0,0.4,0,0.9-0.1,1.6
		c0,1.3-0.1,2.4-0.2,3.4c-0.1,1-0.3,2-0.6,3c0,0.1,0,0.1,0.1,0.1c0.3-0.2,0.6-0.5,1-0.9c0.4-0.4,0.7-0.8,1.1-1.3
		c0.4-0.5,0.8-1,1.2-1.6c0.4-0.6,0.8-1.1,1.1-1.7c0.5-0.8,1-1.8,1.5-3c0.5-1.2,1-2.5,1.4-3.8c0.1,0,0.3,0,0.4,0.1
		c0.2,0,0.4,0.1,0.5,0.2c0.2,0.1,0.3,0.1,0.5,0.2c0.1,0.1,0.2,0.1,0.3,0.2c0,0.8-0.2,1.6-0.6,2.5c-0.3,0.8-0.8,1.7-1.3,2.5
		c-0.5,0.8-1,1.5-1.6,2.2c-0.5,0.7-1,1.3-1.5,1.8c-0.9,1.1-1.8,2-2.7,2.8c-0.9,0.8-2,1.6-3.3,2.4c-0.5-0.2-0.9-0.4-1.2-0.7
		c-0.3-0.3-0.4-0.6-0.4-1c0-0.2,0.1-0.5,0.2-0.8c0.1-0.3,0.2-0.7,0.4-1.1c0.1-0.5,0.2-1,0.4-1.7c0.1-0.7,0.2-1.6,0.2-2.7
		c0-0.6,0-1.2,0-1.9C47.2,59.6,47.2,59.1,47.2,58.8z"/>
	<path class="st4" d="M68.4,57.1c-0.1,1.2-0.3,2.2-0.6,3c-0.3,0.8-0.8,1.6-1.5,2.2c-0.6,0.6-1.4,1.2-2.3,1.7c-0.9,0.5-2,1-3.2,1.5
		c0,0.1,0,0.2,0,0.4c0,0.1,0,0.2,0,0.4c0,0.2,0,0.5,0.1,0.8c0,0.3,0.1,0.5,0.2,0.7c0.1,0.2,0.2,0.4,0.4,0.5c0.2,0.1,0.4,0.2,0.6,0.2
		c0.5,0,1-0.1,1.5-0.3c0.5-0.2,1-0.5,1.4-0.8c0.4-0.3,0.9-0.7,1.2-1.1c0.4-0.4,0.7-0.7,1-1.1c0.2,0.2,0.3,0.3,0.5,0.5
		c-0.8,1.1-1.8,2.1-2.8,2.8c-1,0.7-2,1.2-2.9,1.4c-1.3-0.2-2.3-0.6-3-1.4S58,66.7,58,65.6c0-0.8,0.1-1.6,0.3-2.4
		c0.2-0.8,0.5-1.6,0.9-2.3c0.4-0.7,0.8-1.4,1.4-2.1c0.5-0.7,1.1-1.2,1.7-1.7c0.6-0.5,1.2-0.9,1.8-1.2c0.6-0.3,1.3-0.4,1.9-0.4
		C66.8,55.6,67.6,56.1,68.4,57.1z M66.4,58c-0.5,0.1-1,0.3-1.6,0.6s-1.1,0.8-1.5,1.4c-0.5,0.6-0.9,1.2-1.3,2
		c-0.4,0.8-0.7,1.6-0.9,2.4c1.5-0.8,2.8-1.7,3.8-2.8C65.8,60.5,66.4,59.3,66.4,58z"/>
	<path class="st4" d="M69,68.2c0.1-0.5,0.3-1.3,0.5-2.2c0.2-0.9,0.5-1.8,0.8-2.8c0.3-1,0.7-2,1-3c0.4-1,0.7-1.9,1-2.7
		c0.2-0.6,0.5-1,0.6-1.4c0.2-0.3,0.4-0.6,0.6-0.8c0.3,0,0.5,0.1,0.8,0.2c0.3,0.1,0.6,0.2,0.8,0.3c0.3,0.1,0.5,0.3,0.7,0.4
		c0.2,0.1,0.4,0.3,0.5,0.4c-0.5,0.6-1,1.3-1.3,2.1c-0.4,0.8-0.8,1.8-1.2,3c1-0.9,1.9-1.8,2.7-2.6c0.8-0.8,1.5-1.8,2.2-2.8
		c0.1-0.1,0.3-0.1,0.6-0.1c0.3,0,0.5,0,0.8,0.1c0.2,0.1,0.4,0.2,0.5,0.4c-0.3,0.9-0.5,1.8-0.5,2.7c0,0.8,0.1,1.4,0.4,1.9
		c0,0.1-0.1,0.3-0.4,0.6c-0.2,0.3-0.5,0.6-0.8,0.9c-0.5-0.3-1-0.6-1.4-1.1c-0.4-0.5-0.7-1-0.9-1.5c-0.9,0.6-1.6,1.2-2.3,1.8
		s-1.2,1.3-1.6,2c-0.4,0.7-0.8,1.6-1.1,2.5c-0.3,0.9-0.6,2.1-0.9,3.4c-0.2,0-0.4-0.1-0.6-0.2c-0.2-0.1-0.5-0.2-0.7-0.4
		c-0.2-0.2-0.4-0.3-0.6-0.5C69.2,68.5,69.1,68.4,69,68.2z"/>
</g>
</svg>
