<?xml version="1.0" encoding="UTF-8"?>
<svg enable-background="new 0 0 205.3 203.3" version="1.1" viewBox="0 0 205.3 203.3" xml:space="preserve" xmlns="http://www.w3.org/2000/svg">
<path d="m199.7 88.4-82.9-82.9c-7.3-7.3-19.2-7.3-26.5 0l-82.9 82.8-0.1 0.1c-7.3 7.3-7.3 19.2 0.1 26.5 3.3 3.3 7.7 5.2 12.4 5.4h0.6 3.3v61c0 12.1 9.8 21.9 21.9 21.9h32.4c3.3 0 6-2.7 6-6v-47.7c0-5.5 4.5-10 10-10h19.1c5.5 0 10 4.5 10 10v47.8c0 3.3 2.7 6 5.9 6h32.4c12.1 0 21.9-9.8 21.9-21.9v-61h3.1c10.3 0 18.7-8.4 18.7-18.7 0.2-5-1.8-9.7-5.4-13.3zm-6.4 20c-1.3 1.3-3 2-4.8 2h-9c-3.3 0-6 2.7-6 6l1 65c0 5.5-4.5 12-10 12h-31.5v-43.9c0-12.1-7.8-19.9-19.9-19.9h-19.1c-12.1 0-19.9 7.8-19.9 19.9v43.9h-30.5c-5.5 0-10-6.5-10-12v-65c0-3.3-2.7-6-6-6h-9.1c-3.8-0.1-7.8-4.2-7.7-7.9 0-1.8 0.7-4.5 2-5.7l85.9-84.9c2.6-2.7 6.9-2.7 9.6 0l85.9 85c2.7 2.5 1.7 8.8-0.9 11.5z"/>

	
		<path d="m114.2 162c-2.3 0-4.1 1.8-4.1 4.1s1.8 4.1 4.1 4.1 4.1-1.8 4.1-4.1c0.1-2.2-1.8-4.1-4.1-4.1z"/>
	


	
		<path d="m85.9 199.2c0 2.2 1.8 4.1 4 4.1h27.3c2.3 0 4.1-1.9 4.1-4.1 0-2.3-1.8-4.1-4.1-4.1h-27.3c-2.2 0-4 1.9-4 4.1z"/>
	


	
		<path d="m104.8 20.4c-1.6 1.6-1.6 4.1-0.1 5.7l5.8 5.8c1.7 1.5 4.3 1.4 5.8-0.3 1.4-1.6 1.4-4 0-5.5l-5.9-5.9c-1.6-1.4-4.1-1.4-5.6 0.2z"/>
	


	
		<path d="m118.6 34.3c-1.6 1.6-1.6 4.1-0.1 5.7l0.1 0.1 5.8 5.7c1.6 1.6 4.2 1.5 5.8-0.2 1.5-1.6 1.5-4.1 0-5.6l-5.9-5.9c-1.6-1.4-4.1-1.4-5.7 0.2z"/>
	


	
		<path d="m104.8 34.3c-1.6 1.6-1.6 4.1-0.1 5.7l5.8 5.8c1.6 1.6 4.2 1.6 5.8 0s1.6-4.2 0-5.8l-5.9-5.9c-1.6-1.5-4.1-1.4-5.6 0.2z"/>
	

</svg>
