<?xml version="1.0" encoding="UTF-8"?>
<svg enable-background="new 0 0 207.4 210.8" version="1.1" viewBox="0 0 207.4 210.8" xml:space="preserve" xmlns="http://www.w3.org/2000/svg">
<path d="m61.6 3.4h-25.1c-20.3 0.2-36.6 16.9-36.3 37.2 0.1 12.1 6.2 23.4 16.3 30.1h-6.1c-5.7 0.2-10.3 5-10.1 10.7 0.2 5.5 4.6 9.9 10.1 10.1h3.4c6.5 9.5 6.5 22 0 31.5h-3.4c-5.8 0-10.4 4.7-10.4 10.4s4.7 10.4 10.4 10.4h6c-16.8 11.1-21.4 33.8-10.3 50.6 6.8 10.2 18.2 16.4 30.4 16.4h160.5c13.4 0 13.5-20.8 0-20.8h-3.4c-6.5-9.5-6.5-22 0-31.5h3.4c13.4 0 13.5-20.8 0-20.8h-6c16.8-11.2 21.4-33.8 10.3-50.6-2.7-4.1-6.2-7.6-10.3-10.3h6c5.8-0.2 10.4-4.9 10.4-10.7 0-5.7-4.6-10.4-10.4-10.4h-3.3c-6.5-9.5-6.5-22 0-31.5h3.3c13.4 0 13.5-20.8 0-20.8h-135.4zm16.2 6.1h118.2c2.4 0.1 4.2 2.1 4.1 4.5-0.1 2.2-1.9 4-4.1 4.1h-159.5c-12.1 0.3-21.6 10.2-21.4 22.3 0.3 11.7 9.7 21.1 21.4 21.4h159.5c2.5 0 4.5 2 4.5 4.5s-2 4.5-4.5 4.5h-158.5c-8.1 0-15.8-3.3-21.5-9.1-11.9-12-11.9-31.3 0.1-43.2 5.7-5.7 13.4-8.9 21.4-8.9l40.3-0.1zm-56 30.4c0-8.7 7-15.7 15.7-15.8h148.1c-5.2 9.9-5.2 21.6 0 31.5h-148.1c-8.7 0.1-15.7-7-15.7-15.7zm0 51.6h149.2c8.7 0 15.8 7.1 15.8 15.8s-7.1 15.7-15.8 15.7h-13.6v-12.7h7.3c1.7 0 3-1.4 3-3s-1.4-3-3-3h-104.7c-1.7 0-3 1.4-3 3s1.4 3 3 3h64.6v12.7h-102.7c5.1-9.9 5.1-21.6-0.1-31.5zm108.9 18.8h20.6v52.8l-8-7.7c-1.2-1.1-3-1.1-4.2 0l-8.5 7.9 0.1-53zm-119.3 27.4c-2.4-0.1-4.2-2.1-4.1-4.5 0.1-2.2 1.9-4 4.1-4.1h113.2v8.6h-113.2zm138.5 58.4h46.1c2.4 0.2 4.2 2.2 4 4.6-0.1 2.2-1.9 3.9-4 4h-158.5c-16.8 0-30.5-13.7-30.4-30.5 0-16.8 13.6-30.4 30.4-30.4h87.1v8.6h-88.1c-12.1 0.3-21.6 10.2-21.4 22.3 0.3 11.7 9.7 21.1 21.4 21.4h113.4zm-16.2-6.1h-96.2c-8.7 0.2-15.9-6.7-16.1-15.3-0.2-8.7 6.7-15.9 15.3-16.1h87.9v11.7c0 1.7 1.4 3 3.1 3 0.7 0 1.5-0.3 2-0.8l11.5-10.7 11 10.6c1.2 1.2 3.1 1.2 4.2 0.1 0.6-0.6 0.9-1.4 0.9-2.2v-11.7h28.2c-5.2 9.9-5.2 21.6 0 31.5l-51.8-0.1zm62.3-46.2c2.4 0.1 4.2 2.1 4.1 4.5-0.1 2.2-1.9 4-4.1 4.1h-38.6v-8.6h38.6zm4.3-36.6c0 16.8-13.6 30.4-30.4 30.5h-12.6v-8.6h13.7c12.1 0.3 22-9.3 22.3-21.4s-9.3-22-21.4-22.3h-160.5c-2.4-0.1-4.2-2.1-4.1-4.5 0.1-2.2 1.9-4 4.1-4.1h158.6c16.7 0.1 30.3 13.7 30.3 30.4z"/>
</svg>
