<?xml version="1.0" encoding="UTF-8"?>
<svg enable-background="new 0 0 210.6 210.6" version="1.1" viewBox="0 0 210.6 210.6" xml:space="preserve" xmlns="http://www.w3.org/2000/svg">
<path d="m127.5 78.1c-2.3 0-4.1 1.8-4.1 4.1s1.8 4.1 4.1 4.1 4.1-1.8 4.1-4.1-1.8-4.1-4.1-4.1z"/>
<path d="m205.8 182.5-54.9-54.9c8.9-13.4 13.7-29.2 13.7-45.4 0-45.5-36.8-82.3-82.3-82.4s-82.4 36.9-82.4 82.3 36.8 82.3 82.3 82.4c16.2 0 32-4.7 45.5-13.7l54.9 54.9c6.4 6.4 16.8 6.5 23.3 0.1 6.4-6.3 6.5-16.5 0.3-23l-0.4-0.3zm-80.1-40.3c-33.2 24-79.5 16.6-103.5-16.6s-16.6-79.4 16.5-103.4 79.5-16.6 103.5 16.6c18.8 25.9 18.8 61 0 86.9-4.6 6.3-10.2 11.9-16.5 16.5zm37.7 9.7 36.5 36.5c3.2 3.2 3.2 8.4 0 11.6s-8.4 3.2-11.6 0l-54-54c4.3-3.5 8.1-7.4 11.6-11.6l17.5 17.5z"/>
<path d="m82.2 16.4c-36.3 0-65.8 29.5-65.8 65.8s29.5 65.8 65.8 65.8 65.8-29.5 65.8-65.8-29.4-65.7-65.8-65.8zm0 123.4c-31.8 0-57.6-25.8-57.6-57.6s25.8-57.6 57.6-57.6 57.6 25.8 57.6 57.6-25.8 57.6-57.6 57.6z"/>
<path d="m128.4 64.6c-7.3-19.1-25.7-31.7-46.1-31.7-2.3 0.1-4 2-3.9 4.3 0.1 2.1 1.8 3.8 3.9 3.9 17 0.1 32.3 10.6 38.4 26.4 0.8 2.1 3.2 3.2 5.3 2.4s3.2-3.1 2.4-5.3z"/>
</svg>
